<svg id="a589d74b-ac8d-481f-bc96-51877590ab72" data-name="Layer 1"
          xmlns="http://www.w3.org/2000/svg" xmlns:xlink="http://www.w3.org/1999/xlink"
          width="865.76" height="682.89" viewBox="0 0 865.76 682.89">
          <defs>
                    <clipPath id="bfd9d6e4-c972-4c35-9c78-6cc113d2b4a6">
                              <circle id="fcfb1918-94ea-4a3e-ae54-13766fcf858e" data-name="SVGID"
                                        cx="272.95" cy="356.86" r="167.58"
                                        transform="translate(-172.39 297.53) rotate(-45)"
                                        fill="none" />
                    </clipPath>
                    <clipPath id="a2038044-2c2f-42c7-af22-2416904abb56">
                              <circle id="bbc83905-2884-4f8c-98ae-113584089fc2" data-name="SVGID"
                                        cx="606.71" cy="466.54" r="142.01"
                                        transform="translate(-152.19 565.65) rotate(-45)"
                                        fill="none" />
                    </clipPath>
                    <clipPath id="a320163f-270c-41cd-84eb-02507bc16894">
                              <circle id="aa291317-0a33-4cc6-9522-aef2f4f9e54b" data-name="SVGID"
                                        cx="549.49" cy="171.37" r="121.42"
                                        transform="translate(39.76 438.74) rotate(-45)" fill="none" />
                    </clipPath>
          </defs>
          <circle cx="272.95" cy="356.86" r="167.58"
                    transform="translate(-172.39 297.53) rotate(-45)" fill="#d1d3d4" opacity="0.86" />
          <path
                    d="M457.48,356.86c0,101.9-82.62,184.52-184.53,184.52S88.43,458.76,88.43,356.86,171,172.33,273,172.33"
                    fill="none" stroke="#d1d3d4" stroke-miterlimit="10" />
          <circle cx="549.49" cy="171.37" r="121.42" transform="translate(39.76 438.74) rotate(-45)"
                    fill="#d1d3d4" opacity="0.86" />
          <path d="M549.49,35.41a136,136,0,1,1-136,136" fill="none" stroke="#d1d3d4"
                    stroke-miterlimit="10" />
          <circle cx="606.71" cy="466.54" r="142.01"
                    transform="translate(-152.19 565.65) rotate(-45)" fill="#d1d3d4" opacity="0.86" />
          <path d="M606.71,308.7A157.84,157.84,0,1,1,448.87,466.54" fill="none" stroke="#d1d3d4"
                    stroke-miterlimit="10" />
          <path
                    d="M380.27,314.48l-74.64,71.06,2.71,7.22a54.88,54.88,0,0,1,.92,35.94l-1.48,4.62L302,451.19a39.85,39.85,0,0,0-1.91,12.11c0,7.64-2.46,19.11,1.7,25.39-14.67,15.18-38.79,9.8-58.48-.23a59.45,59.45,0,0,0,.5-6.22c.09-4.86-.28-9.52-1.67-13.05L227.9,442.75A94.62,94.62,0,0,1,217,405.39l-8,41.85a79.92,79.92,0,0,1-4.16,14.34,11.73,11.73,0,0,1-17.18,5.54l-.18-.12a11.74,11.74,0,0,1-5.11-12.92l21.3-81.16c7.38-32.64,71.75-24.32,71.93-23.8a41.33,41.33,0,0,0,30.19-9.32c19.6-16.06,53.85-44.29,53.85-45.19l-26.24-85.08c-5.24-9.39-5.21-14.24-3.89-16.74,1.14-2.17,7.52,6,7.52,6,4.27-13.18,7.75-15.7,12.25-18.19a5.27,5.27,0,0,1,7.61,4.18c2.37,18.48-10.44,25.35-10.44,25.35l36.55,76.49A27,27,0,0,1,380.27,314.48Z"
                    fill="#f9b499" />
          <path
                    d="M479.94,500.12c3.32-10.15,2.37-14.87.6-17.05-1.52-1.9-6.19,7.27-6.19,7.27-6.66-12-10.53-13.84-15.39-15.42a5.24,5.24,0,0,0-6.63,5.52c1.2,18.47,17.8,25.12,17.8,25.12Z"
                    fill="#f9b499" />
          <g clip-path="url(#bfd9d6e4-c972-4c35-9c78-6cc113d2b4a6)">
                    <path
                              d="M269,213.25c-14.8-3.8-43.76,20-47.41,38.93-2.91,15.06.37,34.31-9.25,43.62-7.06,6.84-19.22,5.6-22.43,16.22-2.44,8.07,2.55,17.92-.62,25.55-2.59,6.24-9.51,7.88-12,14.23-2.67,7,2.12,15.66,8,17.73s12-.38,17.72-2.82l49.67-21.1c5.46-2.31,11.07-4.66,16.81-4.28,4.78.31,10.67,14.33,15.15,16.49,11.19,5.4,25.65,3.57,36.84,9,4.38,2.11,9.23,4.24,13.61,2.14,7.33-3.5,8.74-16.36,6.79-26.12S326.62,319,327.43,309c1-12.43,4.84-24,1.79-35.87-2-7.86-8.33-12.18-13.67-16.79-11.37-9.84-11-24-22.49-33.7s-27.69-13.9-38.31-2.74"
                              fill="#2f2e41" />
                    <path
                              d="M230.22,532.55a1,1,0,0,0-.24,0c-5.59.2-4.53-83.7-4.69-84.15-.52-1.24-1-2.51-1.45-3.79-.19-.48-.37-1-.56-1.57-.5-1.46-1-3-1.46-4.5a2.25,2.25,0,0,0-.09-.3c-.5-1.69-1-3.38-1.4-5.1s-.87-3.64-1.24-5.48q-1.16-5.52-1.77-11.14,0-.13,0-.42c-.67-10.79,4.93-20.2,9.28-29.66,16.16-35.15,24.8-42.69,24.8-42.69l24.53,1.62,19.58,24.95s10.23,15.16,13.21,24.27a78.44,78.44,0,0,1,1,43.31l-1.48,5.36L302.39,464c-1.27,4.58,8.57,47,7.77,52.7C308.13,531.29,245,536.26,230.22,532.55Z"
                              fill="#0071f2" />
                    <path
                              d="M256.29,303.11c-.19,1-3.38,23.3-4.85,40.45-.72,8.41,4.81,16.82,10.85,17.43l.27,0c5.94.41,13.45-6.58,13.49-14.88.07-15,1.82-30.27,1.87-30.5Z"
                              fill="#f9b499" />
                    <path
                              d="M182.42,454.08l-35.53,64,15.49,12.34s41.93-61.61,45.05-76.32S182.42,454.08,182.42,454.08Z"
                              fill="#f9b499" />
                    <polygon points="252.91 329.13 254.24 318.04 277.05 324.61 252.91 329.13"
                              fill="#f4a48e" />
                    <path
                              d="M233.75,279.24c.77,19.68,6.88,28.8,15.56,37.43s20.19,9.66,29.92,7.52c7.2-1.59,17.42-13.17,20.43-21.27,3.11-8.38,5.52-22.76,3.94-44.35-.79-10.95-14.37-25.09-29.3-26.11S231.86,231.17,233.75,279.24Z"
                              fill="#f9b499" />
                    <path
                              d="M269,250.4s-25.66,28.67-44.58,33.83c0,0,16.91-60.78,39.14-60.78S269,250.4,269,250.4Z"
                              fill="#2f2e41" />
                    <path
                              d="M269,234.92s17.78,23.61,37.42,27.52c0,0-15.69-40.33-25.8-39S269,234.92,269,234.92Z"
                              fill="#2f2e41" />
          </g>
          <g clip-path="url(#a2038044-2c2f-42c7-af22-2416904abb56)">
                    <path
                              d="M577.93,380.06a67.69,67.69,0,0,0,4.2,53.95s5.61,9.12,22.26,5.29c21.4-4.91,28.59,2.09,35.58-8,13.11-18.82,7.62-62.2-5-59.41"
                              fill="#2f2e41" />
                    <path
                              d="M626,434c.16,1.08,2.58,24.21,3,42,.21,8.7-8.6,17-17.4,17.17h-.39c-8.63,0-18.78-7.72-18-16.26a228.49,228.49,0,0,0,.31-31.51Z"
                              fill="#f9b499" />
                    <path
                              d="M535.82,580.92c4.55-5,13-17.71,25-52.77,7.3-21.4,22.52-32.34,23.86-39.19,2.38-12.19-12.13-13.51-20.22-12.92-10.41.76-20.48,5.66-26.4,25.4-10.58,35.28-21.5,50.68-23.29,59.55C511.13,579,530.42,586.85,535.82,580.92Z"
                              fill="#0071f2" />
                    <path
                              d="M657.69,514.06c-12.61,68.81-9.7,101.41-7,132.51H549.72S565.4,610,554.6,558.38c-1.8-8.6,1.72-75.12,14.81-82,5-2.62,15.32-3.51,22-4.61,3.73-.59,10.31,7.87,16.78,8.32,14.67,1,18-8.92,21-8.46C654.87,475.47,662.56,487.5,657.69,514.06Z"
                              fill="#0071f2" />
                    <path
                              d="M685.52,588.48c1.56-6.58,2.81-21.79-3.67-58.27-4-22.26-6.14-28.21-8.28-34.84-3.81-11.83-9.21-19.44-25.13-17.87-10.39,1-6.82,21.62-2.45,41.77,7.81,36,8.73,53.33,11.46,62C663,598.73,683.66,596.29,685.52,588.48Z"
                              fill="#0071f2" />
                    <path
                              d="M480.41,500.28c9.27,8,41.34,38.21,55.06,52.86,16.22,17.33-3.35,41.05-17.83,31.07-15.67-10.8-3-2.09-26.89-32.55-17.83-22.7-22.23-31.39-23.51-44.26C467.24,507.4,479.42,499.43,480.41,500.28Z"
                              fill="#0071f2" />
                    <path
                              d="M670.81,638c-1.78-11.41-11.52-42.54-14.5-61.28-3.52-22.17,25.71-40.89,28-24.56,2.42,17,1.17,3.2,4,39.78,2.08,27.26.29,36.76-4.27,47.28C680.33,647.73,672,645.53,670.81,638Z"
                              fill="#0071f2" />
                    <path d="M593.88,459.52l-.21-11.2,31.24,6.88S613.15,471.36,593.88,459.52Z"
                              fill="#f4a48e" />
                    <path
                              d="M580.42,413c.47,20.12,5.69,29.39,13.15,38.13s17.46,9.67,25.95,7.37c6.27-1.7,15.29-13.65,18-22,2.8-8.61,5-23.34,3.9-45.42-.58-11.18-12.24-25.5-25.22-26.39S579.28,363.8,580.42,413Z"
                              fill="#f9b499" />
                    <path
                              d="M603.91,357.57s-4.87,0-8.13-9.1c0,0,1,8.4,4.06,13.3,0,0-21.73,1.36-22.93,19.58,0,0-3,14,0,23.83s33.65-20.3,33.65-20.3,10.38,16.24,30.36,12c0,0,9.18-5.12,3.19-19.05S619.51,357.57,603.91,357.57Z"
                              fill="#2f2e41" />
          </g>
          <circle cx="361.17" cy="103.98" r="11.38" fill="#d1d3d4" opacity="0.86" />
          <circle cx="374.24" cy="565.15" r="9.25" fill="#d1d3d4" opacity="0.86" />
          <path d="M333.69,104a6.28,6.28,0,1,1-6.28-6.28A6.28,6.28,0,0,1,333.69,104Z" fill="#d1d3d4"
                    opacity="0.86" />
          <circle cx="397.67" cy="581.71" r="5.1" fill="#d1d3d4" opacity="0.86" />
          <path d="M702.12,280.52a5.11,5.11,0,1,1-5.1-5.11A5.1,5.1,0,0,1,702.12,280.52Z"
                    fill="#d1d3d4" opacity="0.86" />
          <path d="M410.24,549.79a6.12,6.12,0,1,1-6.11-6.11A6.11,6.11,0,0,1,410.24,549.79Z"
                    fill="#d1d3d4" opacity="0.86" />
          <circle cx="253.65" cy="139.23" r="3.06" fill="#d1d3d4" opacity="0.86" />
          <path d="M352.86,126.12a7.85,7.85,0,1,1-8.81-6.75A7.85,7.85,0,0,1,352.86,126.12Z"
                    fill="#d1d3d4" opacity="0.86" />
          <path d="M182.33,96.57a.38.38,0,0,0,0-.75.38.38,0,0,0,0,.75Z" fill="#a99ce7" />
          <path d="M169.42,107.83a.38.38,0,0,0,0-.75.38.38,0,0,0,0,.75Z" fill="#a99ce7" />
          <path d="M192,114.17a.38.38,0,0,0,0-.75.38.38,0,0,0,0,.75Z" fill="#a99ce7" />
          <path d="M733.56,274.05a.38.38,0,0,0,0-.75.38.38,0,0,0,0,.75Z" fill="#a99ce7" />
          <path d="M760.32,306.44a.38.38,0,0,0,0-.75.38.38,0,0,0,0,.75Z" fill="#a99ce7" />
          <path d="M715.24,298a.38.38,0,0,0,0-.75.38.38,0,0,0,0,.75Z" fill="#a99ce7" />
          <path d="M777.22,561.4a.38.38,0,0,0,0-.75.38.38,0,0,0,0,.75Z" fill="#a99ce7" />
          <path d="M442,51.49a.38.38,0,0,0,0-.75.38.38,0,0,0,0,.75Z" fill="#a99ce7" />
          <path d="M496.92,333.21a.38.38,0,0,0,0-.75.38.38,0,0,0,0,.75Z" fill="#a99ce7" />
          <path d="M465.93,303.63a.38.38,0,0,0,0-.75.38.38,0,0,0,0,.75Z" fill="#a99ce7" />
          <path
                    d="M666.86,187.29c-4.83,4.26-28.87,25.82-41.37,37.55-8.57-5.36-25.64-18.42-47.93-34.47-4.47-3.22-16.3-6.07-25.16-3.74-5.49,1.44-8.93,9.6-.88,16.09,4.51,3.64,10.68,8.86,27.18,19.18,23.11,14.44,35.92,20,42.93,22.19a9.79,9.79,0,0,0,3.4.91,5,5,0,0,0,1.92,0,9.72,9.72,0,0,0,5.23-2.32c11.94-10.29,16.14-14.33,28.2-31.65,8.37-12,11.82-10.88,13.9-16C674.71,194,667.38,186.83,666.86,187.29Z"
                    fill="#0071f2" />
          <path id="ade19889-4106-4341-88e9-56f85dcc5c4d" data-name="SVGID"
                    d="M515.25,217.74c.45,1.23.88,2.47,1.32,3.7L498.2,232.81C503.27,228.33,509,223.29,515.25,217.74Z"
                    fill="#ff8031" />
          <path
                    d="M666.86,187.29c1.25-4.72,3.5-10.18,6.11-12.59s-2.14,11.21-1.21,14.78C674.3,199.14,665.81,191.26,666.86,187.29Z"
                    fill="#f9b499" />
          <path
                    d="M671.05,184c7-7.24,9.56-12.25,14.26-13.62s3.26,7.71,1.2,10.61-8.8,13.7-13,14S665.88,189.39,671.05,184Z"
                    fill="#f9b499" />
          <g clip-path="url(#a320163f-270c-41cd-84eb-02507bc16894)">
                    <path
                              d="M545.3,85s-31.85,1.65-33.59,64v25.87l67.91,3.34,7-48.46S579.76,83.3,545.3,85Z"
                              fill="#2f2e41" />
                    <path
                              d="M539.72,150.47c-.16.87-2.85,19.62-4.09,34.07-.6,7.08,4,14.16,9.14,14.67l.23,0c5,.35,11.32-5.54,11.36-12.53.06-12.65,1.54-25.49,1.57-25.69Z"
                              fill="#f9b499" />
                    <path
                              d="M519.52,230.91c3.52,13.11,5,26.7,6.33,40.19,1,9.9-.15,20.07-2.15,29.79-1.22,5.89-2.79,11.7-4.54,17.46-.66,2.18-11.45,39-11.78,40.93,0,0,82.27,7.06,86.77,7.36.32-16-27-72.74-6.12-107.87,12.36-20.73-1.35-37.13-7.76-56.39-1.57-4.72-6.62-12.7-11.2-14.19-2.43-.8-19.78,1.67-22.31,1.29C533,187.42,516.57,180,516.4,196c-.06,5.44-1.28,6.95,0,12.19,1.43,5.86-.87,10,1,15.75C518.2,226.24,518.89,228.56,519.52,230.91Z"
                              fill="#0071f2" />
                    <path
                              d="M547.22,304.34c-4.66-2.44-29.11-23.21-42.94-33.35,3.71-9.41,13.41-28.58,25.1-53.44,2.35-5,3.06-15.49-.85-23.77-2.43-5.14-11.08-7-16,2.08-2.75,5.11-6.84,10.48-13.95,28.6-10,25.37-13.06,39-13.94,46.27a9.37,9.37,0,0,0-.27,3.51,5,5,0,0,0,.38,1.88,9.73,9.73,0,0,0,3.24,4.72c12.31,9.85,17.05,13.24,36.29,21.91,13.36,6,14.81,11.34,19.31,10.42C547.27,312.43,551,306.31,547.22,304.34Z"
                              fill="#0071f2" />
                    <path d="M557.22,170l-.67,8.85S541,174,538.15,163Z" fill="#f4a48e" />
                    <path
                              d="M530.83,136.15c.51,16.2.74,19.79,7.32,26.86s16.42,10.78,24.05,11.3c8.24.56,14.94-7.72,17.27-14.4,2.4-6.92,5.79-23.3,4.68-41.08-.56-9-10.85-20.6-22.22-21.38S529.6,96.56,530.83,136.15Z"
                              fill="#f9b499" />
                    <path
                              d="M535.62,136.68c1.89,5.72,1,11.16-2,12.15s-7-2.84-8.86-8.56-1-11.17,2-12.16S533.72,131,535.62,136.68Z"
                              fill="#f9b499" />
                    <path
                              d="M532.87,133.42s19.69-4.6,27-15.92c0,0,6.21-25.47-3.21-26.23S527.59,111.4,528,118.37,532.87,133.42,532.87,133.42Z"
                              fill="#2f2e41" />
                    <path
                              d="M560.29,115.66s8.59,11.81,23.39,15.82c0,0,3.84.29,3-9.87S575,85,555.21,85.91Z"
                              fill="#2f2e41" />
          </g>
</svg>